<svg xmlns="http://www.w3.org/2000/svg" viewBox="0 0 480.99 165">
    <path d="M61.12 49.68h19.55L96.6 
    75.52l15.92-25.84h19.55v66.76h-18.4V78.1L96.6 104.23h-.38L79.24 
    78.29v38.15H61.12V49.68zM166.99 49.2h17.83l28.42 
    67.23H193.4l-4.86-11.92H162.8l-4.77 11.92h-19.45l28.41-67.23zm16.22 
    40.91l-7.44-18.98-7.53 18.98h14.97zM213.73 106.52l10.3-12.3c6.58 5.25 
    13.92 8.01 21.65 8.01 4.96 0 7.63-1.72 
    7.63-4.58v-.19c0-2.77-2.19-4.29-11.25-6.39-14.21-3.24-25.18-7.25-25.18-20.98v-.19c0-12.4 
    9.82-21.36 25.85-21.36 11.35 0 20.22 3.05 27.46 8.87l-9.25 
    13.07c-6.1-4.29-12.78-6.58-18.69-6.58-4.49 0-6.68 1.91-6.68 
    4.29v.19c0 3.05 2.29 4.39 11.54 6.49 15.35 3.34 24.89 8.3 24.89 
    20.79v.19c0 13.64-10.78 21.74-26.99 21.74-11.82-.01-23.08-3.73-31.28-11.07zM278.69 
    83.25v-.19c0-19.17 15.45-34.71 36.05-34.71 20.6 0 35.86 15.35 35.86 34.52v.19c0 
    19.17-15.45 34.71-36.05 34.71-20.6 0-35.86-15.35-35.86-34.52zm53.02 
    0v-.19c0-9.63-6.96-18.02-17.16-18.02-10.11 0-16.88 8.2-16.88 17.83v.19c0 9.63 
    6.96 18.02 17.08 18.02 10.19 0 16.96-8.2 16.96-17.83zM360.24 49.68h17.26l27.47 
    35.29V49.68h18.31v66.76h-16.21l-28.52-36.62v36.62h-18.31V49.68z"></path>
    <g>
        <path d="M480.99 165H0V0h480.99v165zM16.26 148.75h448.48V16.26H16.26v132.49z"></path>
    </g>
</svg>
